<svg width="20" height="16" viewBox="0 0 20 16" fill="none" xmlns="http://www.w3.org/2000/svg">
<g id="Layer 3" opacity="0.5">
<g id="icons Q2">
<path id="Vector" d="M0.657227 1.14286C0.657227 1.44596 0.768435 1.73665 0.966391 1.95098C1.16434 2.16531 1.43283 2.28571 1.71278 2.28571H18.6017C18.8816 2.28571 19.1501 2.16531 19.3481 1.95098C19.546 1.73665 19.6572 1.44596 19.6572 1.14286C19.6572 0.839753 19.546 0.549063 19.3481 0.334735C19.1501 0.120408 18.8816 0 18.6017 0H1.71278C1.43283 0 1.16434 0.120408 0.966391 0.334735C0.768435 0.549063 0.657227 0.839753 0.657227 1.14286Z" fill="#161616"/>
<path id="Vector_2" d="M4.87945 8.00003C4.87945 8.30314 4.99066 8.59383 5.18861 8.80816C5.38657 9.02248 5.65505 9.14289 5.935 9.14289H18.6017C18.8816 9.14289 19.1501 9.02248 19.3481 8.80816C19.546 8.59383 19.6572 8.30314 19.6572 8.00003C19.6572 7.69693 19.546 7.40624 19.3481 7.19191C19.1501 6.97759 18.8816 6.85718 18.6017 6.85718H5.935C5.65505 6.85718 5.38657 6.97759 5.18861 7.19191C4.99066 7.40624 4.87945 7.69693 4.87945 8.00003Z" fill="#161616"/>
<path id="Vector_3" d="M9.10167 14.8572C9.10167 15.1603 9.21288 15.451 9.41084 15.6653C9.60879 15.8797 9.87728 16.0001 10.1572 16.0001H18.6017C18.8816 16.0001 19.1501 15.8797 19.3481 15.6653C19.546 15.451 19.6572 15.1603 19.6572 14.8572C19.6572 14.5541 19.546 14.2634 19.3481 14.0491C19.1501 13.8348 18.8816 13.7144 18.6017 13.7144H10.1572C9.87728 13.7144 9.60879 13.8348 9.41084 14.0491C9.21288 14.2634 9.10167 14.5541 9.10167 14.8572Z" fill="#161616"/>
</g>
</g>
</svg>
